<svg xmlns="http://www.w3.org/2000/svg" viewBox="0 0 200 200" fill="none">
  <defs>
    <linearGradient id="bGrad" x1="0%" y1="0%" x2="100%" y2="100%">
      <stop offset="0%" stop-color="#1B5E20"/>
      <stop offset="50%" stop-color="#2E7D32"/>
      <stop offset="100%" stop-color="#66BB6A"/>
    </linearGradient>
    <linearGradient id="biteGrad" x1="0%" y1="0%" x2="100%" y2="0%">
      <stop offset="0%" stop-color="#66BB6A"/>
      <stop offset="100%" stop-color="#FB8C00"/>
    </linearGradient>
  </defs>
  <!-- Letter "b" body -->
  <path d="M62 30 L62 140 Q62 168 90 168 Q118 168 118 140 L118 90 Q118 62 90 62 Q75 62 68 72 L68 30 Z" fill="url(#bGrad)"/>
  <!-- Inner circle cutout -->
  <circle cx="90" cy="110" r="30" fill="white" opacity="0.15"/>
  <!-- Leaf inside the "b" -->
  <path d="M82 95 Q90 75 105 82 Q98 92 82 95 Z" fill="#A5D6A7" opacity="0.9"/>
  <path d="M82 95 Q93 85 105 82" stroke="white" stroke-width="1" fill="none" opacity="0.6"/>
  <line x1="82" y1="95" x2="93" y2="88" stroke="white" stroke-width="0.5" opacity="0.4"/>
  <!-- Bite mark -->
  <path d="M118 90 Q125 100 118 110 Q130 105 130 95 Q130 85 118 80 Q125 85 118 90 Z" fill="url(#biteGrad)"/>
</svg>
